<?xml version="1.0" encoding="utf-8"?>
<!-- Generator: Adobe Illustrator 24.0.3, SVG Export Plug-In . SVG Version: 6.00 Build 0)  -->
<svg version="1.1" id="Layer_1" xmlns="http://www.w3.org/2000/svg" xmlns:xlink="http://www.w3.org/1999/xlink" x="0px" y="0px"
	 viewBox="0 0 472.3 354.1" style="enable-background:new 0 0 472.3 354.1;" xml:space="preserve">
<style type="text/css">
	.st0{fill:#FFFFFF;}
	.st1{fill:#F36F24;}
	.st2{fill:#FDC216;}
	.st3{fill:#F78E20;}
</style>
<g>
	<path class="st0" d="M82.5,351.1H61.8L3.2,242.4h20.1l48.8,90.7l48.8-90.7h20.1L82.5,351.1z"/>
	<path class="st0" d="M159.3,351.1V242.4h109.6v16.4h-91.6v27.8H241v16.4h-63.7v31.8h95.8v16.4H159.3z"/>
	<path class="st0" d="M295.1,351.1V242.4h18v108.7H295.1z"/>
	<path class="st0" d="M448.6,351.1l-29.4-41.4h-55v41.4h-18V242.4h85.7c22.8,0,36.6,13.2,36.6,34.2c0,19.2-12,29.4-28.2,32.1
		l29.1,42.3H448.6z M450.1,276.6c0-12-7.4-17.9-22.5-17.9h-63.4v34.5h65C442.8,293.3,450.1,287.3,450.1,276.6z"/>
</g>
<g>
	<g>
		<path class="st1" d="M234.6,145.5c-21.7-14.5-36.2-40-41.6-70.3c-1,0.5-1.9,1.1-2.9,1.6c5.6,30.6,20.6,56.5,42.7,71.2
			c13.4,8.9,29.2,14.3,46.1,15.8c-26.5,0.4-51.6-9.9-69.1-29.3c-12-13.2-21.8-34.4-25.8-53.8c-0.9,0.7-1.9,1.4-2.8,2.1
			c4.3,19.5,14.2,40.5,26.3,53.8c18.2,20.1,44.3,30.7,71.7,30.3c-26.7,3.3-53.7-5-73.4-23.7c-13-12.4-25.1-35.6-29.9-55.9
			c-0.9,0.8-1.8,1.6-2.6,2.4c5.2,20.4,17.3,43.3,30.4,55.8c20.3,19.3,48.2,27.9,75.7,24.5c-8.7,2-17.7,2.8-26.8,2.2
			c-18.7-1.2-36.3-8.3-50.8-20.3c-14.5-12-28-35.7-33.5-57.1c-0.8,0.9-1.7,1.9-2.5,2.8c5.9,21.4,19.5,44.6,34,56.6
			c15,12.4,33.2,19.7,52.5,21c8.7,0.6,17.4-0.1,25.8-1.9c-8.5,2.7-17.4,4.3-26.4,4.4c-19.5,0.3-38.1-5.7-53.9-17.2
			c-15.8-11.6-30.6-34.9-36.8-56.9c-0.8,1-1.5,2.3-2.3,3.3c6.7,21.8,21.5,44.5,37.3,56.1c16.3,11.9,35.6,18.1,55.8,17.8
			c9.1-0.1,18.2-1.7,26.9-4.4c-27,11.6-58.9,9.5-84.7-7.2c-17.7-11.5-32.9-32.9-39.5-55.1c-0.7,1.2-1.4,2.7-2.1,3.9
			c7.2,21.9,22.3,42.5,39.9,53.9c25.7,16.6,57.2,19.3,84.4,8.8c-8.3,4.1-17.2,7-26.4,8.5c-20.7,3.3-42-0.7-60.2-11.1
			c-19.9-11.5-34.7-29.9-41.6-51.9c-0.6,1.4-0.8,4-1.4,5.4c7.5,21.3,21.8,37.8,41.5,49.2c18.8,10.8,40.9,14.9,62.2,11.5
			c20.6-3.3,40.7-12.5,58.3-33.2c-2,0.6-4.9,1.3-5.9,1.4C279.4,163.4,253.7,158.2,234.6,145.5z"/>
	</g>
	<g>
		<path class="st2" d="M147.3,131.4c-8.9-24.8-7-47.7,0.5-67.1c7.7-20.2,22.3-37.3,41.1-48.1c19.6-11.3,42.4-15.2,64.6-11.1
			c0.9,1.2,1.8,2.4,2.7,3.7c-22.4-5-45.8-1.4-65.7,10.1c-18.2,10.5-32.3,27-39.7,46.6c-3.3,8.7-5.3,17.9-5.9,27.1
			c4.5-28.9,22.5-54.8,49.8-68.7c18.7-9.5,44-12.4,66.6-7.6c0.7,1.2,1.6,2.5,2.3,3.7c-22.6-5.4-48.7-3-67.5,6.6
			c-27.4,14-45.2,40.6-48.6,69.8c1.9-8.9,5.2-17.5,9.6-25.5c9.8-17.6,24.8-31.2,43.3-39.4c17.9-7.9,44.9-9.4,67.2-4.2
			c0.5,1.2,1.2,2.4,1.7,3.6c-22.1-5.7-49.7-4.5-67.6,3.4c-17.9,7.9-32.4,21.1-41.9,38.1c-4.4,7.8-7.5,16.3-9.4,25.1
			c2.7-8.2,6.4-16,11.3-23.3c10.8-16.1,26.2-28.2,44.4-35c17.7-6.6,44.5-6.7,66.1-1.2c0.4,1.2,0.9,2.4,1.2,3.6
			c-21.3-6-48.6-6.1-66.2,0.5c-17.7,6.5-32.5,18.2-42.9,33.8c-5.1,7.6-8.9,15.7-11.5,24.3c10.8-25.5,32.2-45.4,59.1-53.3
			c17.3-5.1,43.2-4.2,63.5,1.5c0.3,1.1,0.6,2.3,0.8,3.5c-20-6-46.2-7.2-63.4-2.1c-26,7.7-46.7,26.9-57.2,51.7
			c13.3-24,35.6-41.3,62.1-47c17.6-3.8,40.7-1.9,59.7,4.1c0.1,1.1,0.3,2.3,0.4,3.4c-18.8-6.2-42-8.3-59.4-4.5
			c-25.5,5.5-47,22.1-59.9,45.2c9.8-13.9,22.3-24.9,36.8-32c23.9-11.8,53.6-11.9,83-1.4c0,1.1,0,2.2,0,3.3
			C249,62,219.7,61.9,196.3,73.4C175.7,83.6,158.5,102,147.3,131.4z"/>
	</g>
	<g>
		<path class="st3" d="M254.1,6.8c0.7,0.8,1.5,1.7,2.2,2.5c15.4,20.3,23,44,21.5,67c-1.7,26-16.5,51.4-40.1,71.1
			c0.9,0.6,1.9,1.1,2.9,1.7c23.7-20.2,38.6-46,40.3-72.6c1-16-2.2-32.4-9.3-47.8c13.6,22.7,17.2,49.6,9.2,74.5
			c-5.5,17-18.8,36-33.6,49.2c1,0.5,2.1,0.9,3.2,1.4c14.7-13.5,27.9-32.5,33.4-49.6c8.3-25.8,4.5-53.7-9.7-77.3
			c16.2,21.4,22.5,49,16.2,75.4c-4.2,17.5-18.3,39.5-33.5,53.8c1.1,0.4,2.3,0.7,3.4,1.1c15.1-14.7,28.8-36.6,33-54.2
			c6.6-27.2,0.1-55.7-16.6-77.8c6.1,6.5,11.3,13.9,15.3,22.1c8.3,16.8,11,35.5,7.8,54.1c-3.2,18.6-16.8,42.1-32.7,57.5
			c1.2,0.3,2.5,0.5,3.7,0.7c15.6-15.8,28.8-39.2,32-57.7c3.3-19.2,0.5-38.6-8.1-56c-3.9-7.9-8.8-15.1-14.5-21.4
			c6.6,6,12.4,13,17,20.7c10,16.7,14.1,35.8,12.1,55.3c-2.1,19.5-14.9,44-30.9,60.3c1.3,0.2,3.1,0.3,4,0.3
			c15.6-16.7,27.8-40.8,29.9-60.3c2.2-20.1-2.2-39.9-12.5-57.2c-4.7-7.8-10.5-14.9-17.3-21.1c23.6,17.6,37.7,46.3,36.1,77
			c-1.1,21.1-12.1,45-28.1,61.8c1.4,0,3-0.1,4.5-0.1c15.4-17.2,25.6-40.6,26.7-61.6C323.2,69,309.7,40.4,287,22
			c7.7,5.1,14.7,11.4,20.6,18.7C320.7,56.9,328,77.4,328,98.4c0,23-8.5,44.9-24,61.8c3.3-0.5,5.2-1.3,5.2-1.3
			c14.6-17.1,21.9-37.9,21.9-60.5c0-21.7-7.5-42.9-21.1-59.6C296.8,22.6,278.7,9.6,252,4.8C252.9,5.5,253.2,5.9,254.1,6.8"/>
	</g>
</g>
</svg>
